<svg xmlns="http://www.w3.org/2000/svg"><symbol fill="none" id="sprite-youtube" viewBox="0 0 20 22"><title>youtube</title><path d="M18.964 11.138c-.227-.988-1.035-1.717-2.007-1.825-2.303-.257-4.634-.258-6.954-.257-2.32-.001-4.651 0-6.954.257-.972.109-1.78.837-2.007 1.825-.324 1.406-.327 2.941-.327 4.39 0 1.448 0 2.983.323 4.39.227.987 1.035 1.715 2.007 1.824C5.348 22 7.678 22 10 22c2.321 0 4.651 0 6.955-.258.971-.109 1.78-.837 2.006-1.825.324-1.406.326-2.941.326-4.39 0-1.448.002-2.983-.322-4.39Zm-12.952 1.09H4.668v7.142H3.419v-7.142H2.1v-1.17h3.913v1.17Zm3.39 7.142H8.28v-.675c-.446.511-.87.76-1.283.76-.362 0-.61-.146-.723-.46-.06-.187-.099-.484-.099-.92v-4.898h1.122v4.56c0 .263 0 .4.01.436.027.174.113.263.263.263.225 0 .46-.174.71-.526v-4.733h1.123v6.193Zm4.264-1.859c0 .573-.038.986-.113 1.248-.15.461-.45.696-.897.696-.399 0-.784-.221-1.16-.685v.6h-1.122v-8.312h1.122v2.715c.363-.447.748-.672 1.16-.672.447 0 .747.235.897.698.075.25.113.66.113 1.246v2.466Zm4.236-1.033h-2.245v1.098c0 .573.188.86.574.86.276 0 .437-.15.5-.45.011-.062.026-.31.026-.761h1.145v.164c0 .362-.014.61-.024.723a1.598 1.598 0 0 1-.262.672c-.31.45-.771.672-1.357.672-.588 0-1.034-.212-1.359-.634-.238-.31-.36-.799-.36-1.457v-2.17c0-.661.108-1.146.347-1.459.324-.423.77-.635 1.344-.635.563 0 1.01.212 1.324.635.235.313.347.798.347 1.46v1.282Z" fill="#ed1b2f"/><path d="M16.22 14.111c-.374 0-.562.287-.562.86v.572h1.122v-.573c0-.572-.188-.859-.56-.859Zm-4.164 0c-.185 0-.372.088-.56.273v3.775c.187.188.375.277.56.277.324 0 .488-.277.488-.836v-2.644c0-.558-.165-.845-.488-.845Zm.627-5.626c.413 0 .844-.251 1.295-.769V8.4h1.135V2.14h-1.135v4.785c-.251.355-.49.53-.716.53-.152 0-.241-.09-.266-.265-.014-.037-.014-.175-.014-.441V2.14h-1.13v4.95c0 .441.037.74.1.93.114.317.366.465.73.465ZM4.787 4.997V8.4h1.257V4.997L7.557 0H6.286l-.858 3.298L4.535 0H3.21c.265.779.541 1.561.806 2.34.404 1.172.656 2.055.77 2.657Zm4.456 3.488c.568 0 1.01-.214 1.323-.64.238-.314.352-.808.352-1.473V4.18c0-.669-.114-1.158-.352-1.474-.313-.428-.754-.642-1.323-.642-.565 0-1.006.214-1.32.642-.241.316-.355.805-.355 1.474v2.192c0 .665.114 1.159.355 1.472.313.427.755.64 1.32.64Zm-.541-4.532c0-.58.176-.868.541-.868.366 0 .541.289.541.868v2.633c0 .579-.175.869-.54.869-.366 0-.542-.29-.542-.87V3.954Z" fill="#ed1b2f"/></symbol></svg>