<svg width="20" height="22" viewBox="0 0 20 22" fill="none" xmlns="http://www.w3.org/2000/svg">
<path d="M18.9644 11.1377C18.7371 10.15 17.9292 9.42143 16.9568 9.31298C14.6545 9.0558 12.3232 9.05459 10.0033 9.0558C7.68238 9.05459 5.35154 9.0558 3.0486 9.31298C2.07666 9.42167 1.26923 10.1503 1.04214 11.1377C0.718481 12.5442 0.7146 14.0795 0.7146 15.5277C0.7146 16.9759 0.7146 18.5109 1.03825 19.9174C1.26535 20.9048 2.07278 21.6334 3.0452 21.7421C5.34766 21.9995 7.6785 22.0005 9.99916 21.9995C12.3201 22.0008 14.6504 21.9995 16.9536 21.7421C17.9255 21.6334 18.7335 20.9048 18.9605 19.9174C19.284 18.5109 19.2857 16.9759 19.2857 15.5277C19.2854 14.0792 19.2878 12.5442 18.9644 11.1377ZM6.01171 12.2278H4.6676V19.37H3.41908V12.2278H2.09947V11.0579H6.01171V12.2278ZM9.4028 19.3703H8.27971V18.6946C7.83354 19.206 7.40992 19.4554 6.99723 19.4554C6.63548 19.4554 6.38656 19.3089 6.27422 18.9952C6.21308 18.8079 6.17523 18.5114 6.17523 18.0742V13.1767H7.29735V17.7367C7.29735 17.9997 7.29735 18.1363 7.30754 18.1732C7.33447 18.3474 7.41963 18.4357 7.57005 18.4357C7.7952 18.4357 8.03054 18.2622 8.27947 17.9102V13.1767H9.40256L9.4028 19.3703ZM13.6663 17.5113C13.6663 18.0842 13.6278 18.4969 13.5528 18.7594C13.4029 19.2201 13.1027 19.4554 12.6563 19.4554C12.257 19.4554 11.8717 19.2337 11.4964 18.7703V19.3705H10.3742V11.0579H11.4964V13.7726C11.8588 13.3264 12.2436 13.1008 12.6563 13.1008C13.1027 13.1008 13.4031 13.3359 13.5528 13.7995C13.6283 14.0487 13.6663 14.4582 13.6663 15.0446V17.5113ZM17.9018 16.478H15.6573V17.5759C15.6573 18.1492 15.8448 18.4355 16.2306 18.4355C16.5069 18.4355 16.6678 18.2853 16.7318 17.9854C16.7423 17.9245 16.7571 17.6751 16.7571 17.225H17.902V17.3888C17.902 17.7506 17.8882 17.9997 17.878 18.1118C17.8404 18.3603 17.7521 18.5856 17.6159 18.7841C17.3052 19.2339 16.8447 19.4557 16.2585 19.4557C15.6714 19.4557 15.2245 19.2444 14.9001 18.8215C14.6621 18.5114 14.5398 18.0233 14.5398 17.365V15.1958C14.5398 14.5337 14.6482 14.0494 14.8867 13.7364C15.2109 13.3126 15.6575 13.1015 16.2308 13.1015C16.794 13.1015 17.2404 13.3126 17.5548 13.7364C17.7899 14.0494 17.9022 14.5337 17.9022 15.1958V16.478H17.9018Z" fill="#ed1b2f"/>
<path d="M16.2206 14.1113C15.8455 14.1113 15.6575 14.3979 15.6575 14.9704V15.5435H16.7796V14.9704C16.7793 14.3979 16.5918 14.1113 16.2206 14.1113Z" fill="#ed1b2f"/>
<path d="M12.0558 14.1113C11.8709 14.1113 11.6836 14.1987 11.4961 14.3843V18.1592C11.6834 18.347 11.8709 18.4358 12.0558 18.4358C12.3795 18.4358 12.544 18.1592 12.544 17.5999V14.9564C12.544 14.3979 12.3795 14.1113 12.0558 14.1113Z" fill="#ed1b2f"/>
<path d="M12.6828 8.48487C13.0964 8.48487 13.5268 8.23352 13.9784 7.71626V8.39899H15.1126V2.13965H13.9784V6.92362C13.727 7.27881 13.4888 7.45447 13.2619 7.45447C13.11 7.45447 13.0207 7.3647 12.996 7.1888C12.9822 7.15168 12.9822 7.01363 12.9822 6.74796V2.13965H11.8516V7.08908C11.8516 7.53114 11.8894 7.83029 11.952 8.01977C12.066 8.33688 12.3176 8.48487 12.6828 8.48487Z" fill="#ed1b2f"/>
<path d="M4.78675 4.99747V8.39924H6.04449V4.99747L7.55747 0H6.28566L5.42751 3.29841L4.53467 0H3.21118C3.47636 0.778566 3.75222 1.56101 4.01741 2.34031C4.42088 3.51167 4.67272 4.39481 4.78675 4.99747Z" fill="#ed1b2f"/>
<path d="M9.24316 8.48489C9.81137 8.48489 10.2529 8.27114 10.5662 7.84413C10.8042 7.53091 10.9182 7.03742 10.9182 6.37216V4.18033C10.9182 3.51119 10.8044 3.02207 10.5662 2.70594C10.2529 2.27771 9.81161 2.06396 9.24316 2.06396C8.67785 2.06396 8.23653 2.27771 7.92258 2.70594C7.68166 3.02207 7.56763 3.51119 7.56763 4.18033V6.37216C7.56763 7.03742 7.68166 7.53091 7.92258 7.84413C8.23629 8.27114 8.67785 8.48489 9.24316 8.48489ZM8.70187 3.953C8.70187 3.37387 8.87753 3.08515 9.24316 3.08515C9.60878 3.08515 9.78396 3.37362 9.78396 3.953V6.58591C9.78396 7.16504 9.60878 7.45472 9.24316 7.45472C8.87753 7.45472 8.70187 7.16504 8.70187 6.58591V3.953Z" fill="#ed1b2f"/>
</svg>
